Coordinates
version=1
nRows=60
nColumns=12
inDegrees=yes

Units are S.I. units (second, meters, Newtons, ...)
Angles are in degrees

endheader
time	SC_y	SC_z	SC_x	AC_y	AC_z	AC_x	GH_y	GH_z	GH_yy	EL_x	PS_y
       0.0              -27.99          19.48          22.93          38.48         -10.48         -12.48          176.9          4.929         -145.5          26.35          17.75
   0.03644              -27.99          19.48          22.94          38.48         -10.48         -12.48          176.9          4.934         -145.5          26.36          17.77
   0.07287              -27.99          19.48          22.95          38.48         -10.48         -12.48          176.9          4.939         -145.5          26.37          17.78
    0.1093               -28.0          19.48          22.95          38.48         -10.48         -12.47          176.9          4.945         -145.5          26.38          17.79
    0.1457               -28.0          19.48          22.96          38.48         -10.49         -12.47          176.9           4.95         -145.5          26.39          17.81
    0.1822               -28.0          19.48          22.97          38.47         -10.49         -12.47          176.9          4.957         -145.5          26.41          17.83
    0.2186               -28.0          19.48          22.98          38.47         -10.49         -12.46          176.8          4.963         -145.5          26.42          17.85
    0.2551               -28.0          19.48          22.99          38.47         -10.49         -12.46          176.8           4.97         -145.5          26.44          17.86
    0.2915               -28.0          19.48           23.0          38.47         -10.49         -12.46          176.8          4.978         -145.5          26.45          17.89
    0.3279               -28.0          19.48          23.01          38.47         -10.49         -12.45          176.8          4.986         -145.5          26.47          17.91
    0.3644              -28.01          19.47          23.02          38.46         -10.49         -12.45          176.8          4.995         -145.5          26.49          17.93
    0.4008              -28.01          19.47          23.03          38.46         -10.49         -12.44          176.7          5.004         -145.5          26.51          17.96
    0.4372              -28.01          19.47          23.05          38.46         -10.49         -12.44          176.7          5.014         -145.5          26.54          17.99
    0.4737              -28.01          19.47          23.06          38.46         -10.49         -12.43          176.7          5.025         -145.5          26.56          18.02
    0.5101              -28.01          19.47          23.08          38.45         -10.49         -12.43          176.7          5.037         -145.4          26.59          18.05
    0.5465              -28.02          19.47           23.1          38.45         -10.49         -12.42          176.6           5.05         -145.4          26.61          18.08
     0.583              -28.02          19.46          23.11          38.45          -10.5         -12.41          176.6          5.063         -145.4          26.65          18.12
    0.6194              -28.02          19.46          23.14          38.44          -10.5          -12.4          176.6          5.079         -145.4          26.68          18.16
    0.6559              -28.03          19.46          23.16          38.44          -10.5         -12.39          176.5          5.095         -145.4          26.72          18.21
    0.6923              -28.03          19.46          23.18          38.43          -10.5         -12.39          176.5          5.113         -145.4          26.76          18.26
    0.7287              -28.03          19.45          23.21          38.43          -10.5         -12.37          176.5          5.133         -145.4           26.8          18.31
    0.7652              -28.04          19.45          23.24          38.42          -10.5         -12.36          176.4          5.155         -145.4          26.85          18.37
    0.8016              -28.04          19.45          23.27          38.42         -10.51         -12.35          176.3          5.179         -145.3          26.91          18.44
     0.838              -28.05          19.44          23.31          38.41         -10.51         -12.34          176.3          5.206         -145.3          26.97          18.51
    0.8745              -28.06          19.44          23.35           38.4         -10.51         -12.32          176.2          5.236         -145.3          27.03          18.59
    0.9109              -28.06          19.43          23.39           38.4         -10.52          -12.3          176.1          5.269         -145.3          27.11          18.69
    0.9473              -28.07          19.43          23.44          38.39         -10.52         -12.28          176.1          5.306         -145.2          27.19          18.79
    0.9838              -28.08          19.42           23.5          38.37         -10.52         -12.26          176.0          5.348         -145.2          27.28           18.9
      1.02              -28.09          19.41          23.56          38.36         -10.53         -12.23          175.9          5.395         -145.2          27.39          19.03
     1.057               -28.1           19.4          23.64          38.35         -10.53         -12.21          175.7          5.449         -145.1          27.51          19.18
     1.093              -28.11          19.39          23.72          38.33         -10.54         -12.17          175.6          5.511         -145.1          27.65          19.35
      1.13              -28.13          19.38          23.81          38.32         -10.54         -12.14          175.4          5.581         -145.0          27.81          19.54
     1.166              -28.14          19.37          23.92           38.3         -10.55         -12.09          175.3          5.662         -144.9          27.99          19.77
     1.202              -28.16          19.36          24.05          38.27         -10.56         -12.04          175.0          5.757         -144.9           28.2          20.03
     1.239              -28.18          19.34           24.2          38.24         -10.57         -11.98          174.8          5.867         -144.8          28.45          20.33
     1.275              -28.21          19.32          24.37          38.21         -10.58         -11.91          174.5          5.997         -144.7          28.74          20.69
     1.312              -28.24           19.3          24.58          38.17          -10.6         -11.83          174.1          6.152         -144.6          29.09          21.11
     1.348              -28.28          19.27          24.83          38.12         -10.62         -11.73          173.7          6.338         -144.4           29.5          21.62
     1.385              -28.33          19.23          25.14          38.07         -10.64         -11.61          173.2          6.562         -144.2           30.0          22.24
     1.421              -28.38          19.19          25.51           38.0         -10.66         -11.47          172.6          6.836         -144.0          30.62          22.99
     1.457              -28.45          19.14          25.96          37.91         -10.69         -11.29          171.8          7.175         -143.7          31.38          23.92
     1.494              -28.54          19.07          26.53          37.81         -10.73         -11.06          170.9          7.597         -143.4          32.32          25.08
      1.53              -28.65          18.99          27.25          37.67         -10.78         -10.78          169.6          8.128         -143.0          33.51          26.54
     1.567              -28.79          18.89          28.16           37.5         -10.85         -10.42          168.1          8.804         -142.5          35.03           28.4
     1.603              -28.96          18.75          29.32          37.28         -10.93          -9.96          166.1          9.669         -141.8          36.97          30.77
      1.64              -29.19          18.58          30.82           37.0         -11.03          -9.37          163.6          10.78         -140.9          39.45          33.82
     1.676              -29.48          18.36          32.73          36.64         -11.16         -8.615          160.4           12.2         -139.8          42.63          37.72
     1.712              -29.84          18.09          35.14          36.19         -11.33         -7.666          156.3          13.98         -138.4          46.63          42.62
     1.749              -30.29          17.75          38.07          35.64         -11.53          -6.51          151.4          16.15         -136.6          51.49          48.59
     1.785               -30.8          17.36          41.46           35.0         -11.77          -5.17          145.7          18.67         -134.6          57.14           55.5
     1.822              -31.36          16.94          45.14          34.31         -12.02         -3.719          139.5           21.4         -132.5          63.25          62.99
     1.858              -31.92          16.52          48.81          33.62         -12.28         -2.267          133.3          24.12         -130.3          69.36          70.49
     1.895              -32.43          16.13          52.21          32.98         -12.52        -0.9272          127.5          26.64         -128.3           75.0           77.4
     1.931              -32.88          15.79          55.14          32.43         -12.72         0.2291          122.6          28.81         -126.6          79.87          83.37
     1.968              -33.24          15.52          57.54          31.98         -12.89          1.178          118.5           30.6         -125.2          83.86          88.27
     2.004              -33.53           15.3          59.45          31.62         -13.02          1.932          115.3          32.01         -124.0          87.04          92.17
      2.04              -33.76          15.13          60.95          31.34         -13.12          2.523          112.8          33.12         -123.2          89.53          95.22
     2.077              -33.94          14.99          62.12          31.12          -13.2          2.984          110.8          33.99         -122.5          91.47          97.59
     2.113              -34.07          14.89          63.03          30.95         -13.27          3.343          109.3          34.66         -121.9          92.98          99.45
      2.15              -34.18          14.81          63.74          30.81         -13.32          3.626          108.1           35.2         -121.5          94.17          100.9
